<?xml version="1.0" encoding="UTF-8" standalone="no"?>
<!DOCTYPE svg PUBLIC "-//W3C//DTD SVG 1.1//EN" "http://www.w3.org/Graphics/SVG/1.1/DTD/svg11.dtd">
<svg id="Layer_1" xmlns="http://www.w3.org/2000/svg" xml:space="preserve" viewBox="0 0 343.234 99.285" version="1.1" y="0px" x="0px" xmlns:xlink="http://www.w3.org/1999/xlink" enable-background="new 0 0 343.234 99.285">
				<linearGradient id="SVGID_1_" y2="45.595" gradientUnits="userSpaceOnUse" x2="5.48" y1="-9.443" x1="47.309">
					<stop stop-color="#F7921E" offset=".1718"/>
					<stop stop-color="#F6861F" offset=".241"/>
					<stop stop-color="#F26822" offset=".432"/>
					<stop stop-color="#F04D23" offset=".6057"/>
					<stop stop-color="#EF3A24" offset=".7544"/>
					<stop stop-color="#EE3124" offset=".861"/>
				</linearGradient>
				<path d="m30.291 53.637c3.184-17.545 12.178-37.944 24.643-48.778h-49.416c12.431 8.852 23.007 26.879 24.773 48.778z" fill="url(#SVGID_1_)"/>
				<linearGradient id="SVGID_2_" y2="113.14" gradientUnits="userSpaceOnUse" x2="39.465" y1="-7.9445" x1="121.65">
					<stop stop-color="#64CBE8" offset="0"/>
					<stop stop-color="#00B5D1" offset=".4294"/>
					<stop stop-color="#003A5D" offset=".9816"/>
				</linearGradient>
				<path d="m83.686 19.785s5.121 7.559 8.953 15.268c4.918 9.887 7.02 17.609 7.02 17.609s16.031-37.814 27.311-52.662c-31.263 9.119-43.284 19.785-43.284 19.785z" fill="url(#SVGID_2_)"/>
				<linearGradient id="SVGID_3_" y2="15.064" gradientUnits="userSpaceOnUse" x2="93.592" y1="122.93" x1="34.154">
					<stop stop-color="#FFF200" offset=".3252"/>
					<stop stop-color="#EBE70F" offset=".4024"/>
					<stop stop-color="#C7DA2C" offset=".525"/>
					<stop stop-color="#AAD037" offset=".6463"/>
					<stop stop-color="#94C93D" offset=".7645"/>
					<stop stop-color="#87C540" offset=".8779"/>
					<stop stop-color="#82C341" offset=".9816"/>
				</linearGradient>
				<path d="m77 25.635c-17.623 16.131-30.228 33.109-37.908 47.51 14.695 6.949 26.555 14.598 34.043 19.898-0.645-5.801-4.867-41.537 3.865-67.408z" fill="url(#SVGID_3_)"/>
					<linearGradient id="SVGID_4_" y2="46.309" gradientUnits="userSpaceOnUse" x2="6.4179" y1="-8.7307" x1="48.248">
						<stop stop-color="#F7921E" offset=".1718"/>
						<stop stop-color="#F6861F" offset=".241"/>
						<stop stop-color="#F26822" offset=".432"/>
						<stop stop-color="#F04D23" offset=".6057"/>
						<stop stop-color="#EF3A24" offset=".7544"/>
						<stop stop-color="#EE3124" offset=".861"/>
					</linearGradient>
					<path d="m0 4.858v54.735c9.785 2.111 19.098 5.141 27.713 8.59 1.002-27.236-8.012-51.122-27.713-63.325z" fill="url(#SVGID_4_)"/>
				<linearGradient id="SVGID_5_" y2="59.83" gradientUnits="userSpaceOnUse" x2="24.212" y1="4.7921" x1="66.041">
					<stop stop-color="#F7921E" offset=".1718"/>
					<stop stop-color="#F6861F" offset=".241"/>
					<stop stop-color="#F26822" offset=".432"/>
					<stop stop-color="#F04D23" offset=".6057"/>
					<stop stop-color="#EF3A24" offset=".7544"/>
					<stop stop-color="#EE3124" offset=".861"/>
				</linearGradient>
				<path d="m33.295 54.094c4.82-10.43 19.582-32.238 36.695-43.361-3.013-2.333-6.31-4.344-9.924-5.875-20.656 14.699-26.771 49.236-26.771 49.236z" fill="url(#SVGID_5_)"/>
				<linearGradient id="SVGID_6_" y2="5.1061" gradientUnits="userSpaceOnUse" x2="75.523" y1="112.98" x1="16.084">
					<stop stop-color="#FFF200" offset=".3252"/>
					<stop stop-color="#EBE70F" offset=".4024"/>
					<stop stop-color="#C7DA2C" offset=".525"/>
					<stop stop-color="#AAD037" offset=".6463"/>
					<stop stop-color="#94C93D" offset=".7645"/>
					<stop stop-color="#87C540" offset=".8779"/>
					<stop stop-color="#82C341" offset=".9816"/>
				</linearGradient>
				<path d="m30.563 69.346c0.318 0.135 4.172 1.793 5.756 2.514 2.773-5.891 16.598-29.576 42.809-52.078-1.08-1.331-3.914-4.664-6.678-7.011-32.018 21.944-41.887 56.575-41.887 56.575z" fill="url(#SVGID_6_)"/>
				<linearGradient id="SVGID_7_" y2="34.092" gradientUnits="userSpaceOnUse" x2="71.727" y1="108.23" x1="36.493">
					<stop stop-color="#FFCB05" offset=".3374"/>
					<stop stop-color="#B0D235" offset=".6459"/>
					<stop stop-color="#82C341" offset=".9816"/>
				</linearGradient>
				<path d="m80.156 16.387v-0.002c-0.017-0.018-0.031-0.035 0 0.002z" fill="url(#SVGID_7_)"/>
				<linearGradient id="SVGID_8_" y2="35.444" gradientUnits="userSpaceOnUse" x2="71.115" y1="115.19" x1="33.214">
					<stop stop-color="#FFCB05" offset=".3374"/>
					<stop stop-color="#B0D235" offset=".6459"/>
					<stop stop-color="#82C341" offset=".9816"/>
				</linearGradient>
				<path d="m80.156 16.385v0.002c0.037 0.043 0.018 0.019 0-0.002z" fill="url(#SVGID_8_)"/>
				<linearGradient id="SVGID_9_" y2="7.9689" gradientUnits="userSpaceOnUse" x2="80.717" y1="115.85" x1="21.272">
					<stop stop-color="#FFF200" offset=".3252"/>
					<stop stop-color="#EBE70F" offset=".4024"/>
					<stop stop-color="#C7DA2C" offset=".525"/>
					<stop stop-color="#AAD037" offset=".6463"/>
					<stop stop-color="#94C93D" offset=".7645"/>
					<stop stop-color="#87C540" offset=".8779"/>
					<stop stop-color="#82C341" offset=".9816"/>
				</linearGradient>
				<path d="m74.93 11.07c0.682 0.656 3.695 3.561 5.227 5.316-0.031-0.037-0.018-0.02 0-0.002 1.732-4.476 3.555-7.805 5.482-10.676-2.487 0.933-6.209 2.587-10.709 5.362z" fill="url(#SVGID_9_)"/>
		<linearGradient id="SVGID_10_" y2="116.09" gradientUnits="userSpaceOnUse" x2="43.81" y1="-4.9953" x1="126">
			<stop stop-color="#64CBE8" offset="0"/>
			<stop stop-color="#00B5D1" offset=".4294"/>
			<stop stop-color="#003A5D" offset=".9816"/>
		</linearGradient>
		<path d="m81.096 21.771c0 0.002-10.811 28.711-4.596 73.287 2.43 1.82 5.451 4.226 5.451 4.226s9.553-27.592 15.678-41.676c-1.699-6.957-5.457-19.243-16.533-35.837z" fill="url(#SVGID_10_)"/>
		<path d="m293.17 80.078l-8.656-13.404v13.404h-4.26v-21.838h3.805l8.65 13.371v-13.371h4.262v21.838h-3.8z"/>
		<path d="m307.49 80.264c-3.307 0-5.826-0.705-7.973-2.885l2.766-2.762c1.375 1.379 3.246 1.844 5.242 1.844 2.545 0 3.889-0.98 3.889-2.73 0-0.738-0.207-1.35-0.668-1.812-0.432-0.398-0.859-0.578-1.965-0.734l-2.607-0.4c-1.932-0.274-3.25-0.856-4.232-1.807-1.039-1.012-1.564-2.453-1.564-4.293 0-3.899 2.881-6.627 7.609-6.627 3.002 0 5.18 0.737 7.051 2.543l-2.695 2.67c-1.354-1.318-3.039-1.5-4.479-1.5-2.271 0-3.344 1.256-3.344 2.76 0 0.58 0.15 1.133 0.613 1.562 0.428 0.4 1.072 0.703 1.992 0.826l2.609 0.402c1.992 0.277 3.221 0.795 4.17 1.715 1.164 1.072 1.685 2.643 1.685 4.604 0.01 4.233-3.48 6.624-8.09 6.624z"/>
		<path d="m337.37 80.078h-3.549l-4.021-13.25-4.018 13.25h-3.566l-5.82-21.838h4.445l3.373 13.771 3.988-13.771h3.195l3.984 13.771 3.404-13.771h4.449l-5.86 21.838z"/>
		<path d="m138.73 76.883c-1.566 2.182-3.627 3.197-6.615 3.197h-7.904v-21.898h7.904c2.988 0 5.049 1.012 6.615 3.193 1.353 1.881 1.389 4.125 1.389 7.754-0.01 3.633-0.05 5.881-1.4 7.754zm-3.78-13.539c-0.719-0.887-1.758-1.35-3.205-1.35h-3.26v14.273h3.26c1.447 0 2.486-0.461 3.205-1.354 0.793-0.955 0.889-2.338 0.889-5.785 0.01-3.444-0.09-4.825-0.88-5.784z"/>
		<path d="m146.18 73.311c0 2.098 1.227 3.572 3.508 3.572 1.754 0 2.613-0.521 3.625-1.506l2.432 2.365c-1.631 1.658-3.195 2.521-6.092 2.521-3.781 0-7.41-1.721-7.41-8.215 0-5.227 2.83-8.178 6.98-8.178 4.457 0 6.982 3.201 6.982 7.752v1.688h-10.03zm5.72-4.459c-0.43-0.953-1.32-1.66-2.674-1.66-1.355 0-2.24 0.707-2.676 1.66-0.275 0.584-0.344 1.014-0.367 1.723h6.086c-0.03-0.71-0.09-1.139-0.37-1.723z"/>
		<path d="m164.3 80.264c-2.521 0-4.768-0.273-6.828-2.305l2.613-2.615c1.287 1.322 3.041 1.508 4.279 1.508 1.383 0 2.828-0.461 2.828-1.66 0-0.801-0.404-1.354-1.701-1.479l-2.578-0.244c-2.828-0.279-4.611-1.539-4.611-4.494 0-3.354 2.922-5.104 6.182-5.104 2.523 0 4.586 0.459 6.123 1.873l-2.457 2.494c-0.926-0.832-2.314-1.076-3.725-1.076-1.604 0-2.283 0.736-2.283 1.535s0.467 1.266 1.668 1.385l2.518 0.246c3.166 0.309 4.77 1.969 4.77 4.709 0 3.535-3.02 5.227-6.8 5.227z"/>
		<path d="m178.61 80.08c-3.26 0-4.641-2.305-4.641-4.578v-7.943h-1.693v-3.043h1.693v-4.736h3.996v4.736h2.83v3.043h-2.83v7.695c0 0.92 0.434 1.447 1.381 1.447h1.449v3.379h-2.19z"/>
		<path d="m183.51 61.316v-3.26h4.088v3.26h-4.09zm0.06 18.764v-15.564h4v15.564h-4z"/>
		<path d="m199.95 80.08v-9.689c0-2.184-1.385-2.922-2.648-2.922-1.266 0-2.678 0.738-2.678 2.922v9.689h-4.002v-16.027h3.908v1.479c1.049-1.107 2.525-1.66 4.002-1.66 1.6 0 2.893 0.52 3.783 1.412 1.293 1.291 1.627 2.803 1.627 4.553v10.243h-3.99z"/>
		<path d="m215.61 80.08v-1.383c-1.08 1.074-2.092 1.537-3.938 1.537-1.822 0-3.176-0.492-4.094-1.412-0.861-0.893-1.324-2.189-1.324-3.601 0-2.553 1.75-4.647 5.541-4.647h3.725v-0.799c0-1.754-0.859-2.52-2.986-2.52-1.449 0-2.217 0.396-3.08 1.379l-2.518-2.49c1.56-1.721 3.074-2.273 5.752-2.273 4.52 0 6.826 1.904 6.826 5.658v10.551h-3.9zm-0.09-6.769h-3.053c-1.594 0-2.363 0.648-2.363 1.852 0 1.105 0.77 1.809 2.43 1.809 0.984 0 1.693-0.119 2.367-0.764 0.457-0.4 0.619-1.016 0.619-2.031v-0.866z"/>
		<path d="m227.98 80.08c-3.262 0-4.646-2.305-4.646-4.578v-7.943h-1.691v-3.043h1.691v-4.736h3.998v4.736h2.832v3.043h-2.832v7.695c0 0.92 0.426 1.447 1.385 1.447h1.447v3.379h-2.19z"/>
		<path d="m232.88 61.316v-3.26h4.092v3.26h-4.09zm0.06 18.764v-15.564h3.998v15.564h-4z"/>
		<path d="m251.21 78.174c-1.012 1.039-2.611 1.965-4.98 1.965-2.365 0-3.943-0.926-4.951-1.965-1.445-1.541-1.822-3.355-1.822-6.25 0-2.889 0.377-4.672 1.822-6.211 1.008-1.047 2.586-1.967 4.951-1.967 2.369 0 3.969 0.893 4.98 1.967 1.449 1.539 1.816 3.322 1.816 6.211 0 2.894-0.34 4.738-1.82 6.25zm-3.1-10.121c-0.461-0.467-1.076-0.711-1.875-0.711-0.766 0-1.385 0.244-1.85 0.711-0.824 0.795-0.916 2.242-0.916 3.871 0 1.664 0.092 3.113 0.916 3.912 0.465 0.459 1.084 0.703 1.85 0.703 0.799 0 1.414-0.244 1.875-0.703 0.83-0.799 0.926-2.248 0.926-3.912-0.02-1.629-0.11-3.076-0.94-3.871z"/>
		<path d="m264.77 79.955v-9.689c0-2.184-1.385-2.924-2.648-2.924-1.262 0-2.674 0.74-2.674 2.924v9.689h-4v-16.027h3.906v1.477c1.053-1.107 2.523-1.658 4-1.658 1.596 0 2.891 0.52 3.783 1.412 1.291 1.291 1.633 2.801 1.633 4.549v10.248h-4z"/>
	<g fill="#00B5D1">
		<path d="m133.38 51.919c-3.758 0-7.105-0.414-10.172-3.438l3.895-3.896c1.924 1.97 4.535 2.247 6.367 2.247 2.062 0 4.217-0.688 4.217-2.476 0-1.19-0.596-2.014-2.521-2.199l-3.85-0.367c-4.213-0.413-6.869-2.291-6.869-6.688 0-4.994 4.352-7.606 9.207-7.606 3.756 0 6.826 0.686 9.119 2.793l-3.668 3.712c-1.373-1.235-3.436-1.603-5.543-1.603-2.385 0-3.391 1.098-3.391 2.29s0.686 1.881 2.477 2.062l3.758 0.367c4.717 0.459 7.1 2.932 7.1 7.009-0.02 5.27-4.51 7.793-10.14 7.793z"/>
		<path d="m156.63 55.49c-0.504 1.331-1.053 2.337-1.785 3.07-1.377 1.375-3.164 1.832-5.131 1.832h-2.338v-5.357h1.375c1.693 0 2.383-0.415 2.977-2.154l1.008-2.934-8.152-22.177h6.275l4.947 14.755 4.766-14.755h6.275l-10.23 27.72z"/>
		<path d="m182.06 51.644v-2.248c-1.65 1.836-3.391 2.523-5.91 2.523-2.381 0-4.488-0.779-5.816-2.153-2.291-2.338-2.475-6.048-2.475-10.082 0-3.985 0.184-7.697 2.475-10.035 1.328-1.372 3.391-2.151 5.77-2.151 2.428 0 4.26 0.641 5.818 2.381v-10.858h5.957v32.623h-5.83zm-4.22-18.788c-3.574 0-4.031 2.98-4.031 6.827 0 3.849 0.457 6.872 4.031 6.872 3.572 0 4.078-3.023 4.078-6.872 0-3.846-0.51-6.827-4.08-6.827z"/>
		<path d="m206.07 51.644v-14.435c0-3.252-2.066-4.353-3.943-4.353s-3.986 1.101-3.986 4.353v14.435h-5.955v-23.873h5.818v2.201c1.557-1.652 3.758-2.475 5.955-2.475 2.385 0 4.311 0.779 5.635 2.108 1.926 1.924 2.428 4.168 2.428 6.779v15.259h-5.96z"/>
		<path d="m221.53 41.563c0 3.116 1.83 5.312 5.223 5.312 2.611 0 3.891-0.779 5.406-2.243l3.617 3.527c-2.426 2.475-4.766 3.759-9.07 3.759-5.637 0-11.045-2.568-11.045-12.235 0-7.789 4.217-12.187 10.4-12.187 6.646 0 10.402 4.765 10.402 11.548v2.519h-14.93zm8.53-6.643c-0.643-1.423-1.973-2.474-3.99-2.474-2.014 0-3.342 1.051-3.984 2.474-0.41 0.87-0.502 1.512-0.547 2.564h9.07c-0.05-1.052-0.15-1.694-0.55-2.564z"/>
		<path d="m249.08 55.49c-0.504 1.331-1.053 2.337-1.785 3.07-1.375 1.375-3.16 1.832-5.133 1.832h-2.338v-5.357h1.375c1.695 0 2.383-0.415 2.979-2.154l1.008-2.934-8.156-22.177h6.279l4.949 14.755 4.762-14.755h6.277l-10.22 27.72z"/>
		<path d="m256.61 51.644v-6.78h6.822v6.78h-6.82z"/>
		<path d="m276.47 51.919c-4.764 0-10.674-2.568-10.674-12.235s5.91-12.187 10.674-12.187c3.299 0 5.773 1.007 7.881 3.207l-4.029 4.03c-1.238-1.329-2.293-1.878-3.852-1.878-1.418 0-2.518 0.506-3.389 1.558-0.916 1.146-1.33 2.75-1.33 5.27 0 2.521 0.414 4.171 1.33 5.316 0.871 1.054 1.971 1.556 3.389 1.556 1.559 0 2.613-0.549 3.852-1.876l4.029 3.983c-2.1 2.2-4.58 3.256-7.88 3.256z"/>
		<path d="m303.2 48.985c-1.514 1.558-3.896 2.934-7.422 2.934-3.529 0-5.867-1.376-7.377-2.934-2.154-2.291-2.703-4.994-2.703-9.302s0.549-6.964 2.703-9.255c1.51-1.558 3.848-2.932 7.377-2.932 3.525 0 5.908 1.329 7.422 2.932 2.154 2.291 2.703 4.947 2.703 9.255 0.01 4.308-0.5 7.056-2.7 9.302zm-4.62-15.073c-0.688-0.688-1.604-1.056-2.793-1.056-1.145 0-2.062 0.367-2.75 1.056-1.24 1.19-1.375 3.346-1.375 5.772 0 2.475 0.135 4.63 1.375 5.818 0.688 0.688 1.605 1.054 2.75 1.054 1.189 0 2.105-0.365 2.793-1.054 1.238-1.188 1.375-3.344 1.375-5.818-0.01-2.426-0.15-4.581-1.38-5.772z"/>
		<path d="m337.24 51.644v-14.435c0-3.252-2.064-4.353-3.938-4.353-1.836 0-3.99 1.101-3.99 4.218v14.569h-5.953v-14.434c0-3.252-2.064-4.353-3.943-4.353-1.873 0-3.982 1.101-3.982 4.353v14.435h-5.957v-23.873h5.818v2.201c1.557-1.605 3.756-2.475 5.955-2.475 2.658 0 4.812 0.964 6.322 3.024 2.016-2.106 4.17-3.024 7.148-3.024 2.385 0 4.539 0.779 5.863 2.108 1.926 1.924 2.611 4.168 2.611 6.779v15.259h-5.96z"/>
	</g>
</svg>